<?xml version="1.0" encoding="utf-8"?>
<!-- Generator: Adobe Illustrator 22.0.1, SVG Export Plug-In . SVG Version: 6.00 Build 0)  -->
<svg version="1.1" id="editar" xmlns="http://www.w3.org/2000/svg" xmlns:xlink="http://www.w3.org/1999/xlink" x="0px" y="0px"
	 viewBox="0 0 512 512" style="enable-background:new 0 0 512 512;" xml:space="preserve">
<style type="text/css">
	.st0{fill:#2BC866;}
</style>
<g>
	<g>
		<path class="st0" d="M178.1,441.4l320.7-322.1c17.6-17.6,17.6-46.1,0-63.6l-42.4-42.4c-17.5-17.5-46.1-17.5-63.7,0
			C296.5,109.9,168,239,71.8,335.6c-1.1,1.1-2.3,2.8-3.1,4.5c-0.7,1.6-67.1,150-67.4,150.9c-4.4,10,3.1,21,13.7,21c0,0,0,0,0,0h362
			c8.3,0,15-6.7,15-15c0-8.3-6.7-15-15-15H87.4l85.8-37.1C175.1,444,176.8,442.8,178.1,441.4z M414,34.4c5.8-5.8,15.4-5.8,21.2,0
			l42.4,42.4c5.8,5.8,6,15.3,0,21.2l-31.7,31.9l-63.6-63.6L414,34.4z M361.1,87.6l63.6,63.6l-42.3,42.5l-63.6-63.6L361.1,87.6z
			 M44.4,467.9l42.8-95.6l53.8,53.8L44.4,467.9z M103.6,346.2l194-194.8l63.6,63.6l-194,194.8L103.6,346.2z"/>
	</g>
</g>
</svg>
