<?xml version="1.0" encoding="utf-8"?>
<!-- Generator: Adobe Illustrator 22.0.1, SVG Export Plug-In . SVG Version: 6.00 Build 0)  -->
<svg version="1.1" id="imprimir" xmlns="http://www.w3.org/2000/svg" xmlns:xlink="http://www.w3.org/1999/xlink" x="0px" y="0px"
	 viewBox="0 0 191.1 184.5" style="enable-background:new 0 0 191.1 184.5;" xml:space="preserve">
<style type="text/css">
	.st0{fill:#2BC866;}
</style>
<path id="imprimir-path4" class="st0" d="M60.2,0h70.2c5.3,0,10.1,2.2,13.6,5.7c3.5,3.5,5.7,8.3,5.7,13.6v29.4h21.7
	c5.4,0,10.4,2.2,14,5.8c3.6,3.6,5.8,8.5,5.8,14v62.1c0,5.4-2.2,10.4-5.8,14c-3.6,3.6-8.5,5.8-14,5.8h-20.1V168
	c0,4.5-1.9,8.7-4.8,11.7c-3,3-7.1,4.8-11.7,4.8H55.1c-4.5,0-8.7-1.9-11.7-4.8c-3-3-4.8-7.1-4.8-11.7v-17.8H19.8
	c-5.4,0-10.4-2.2-14-5.8c-3.6-3.6-5.8-8.5-5.8-14V68.4C0,63,2.2,58,5.8,54.4c3.6-3.6,8.5-5.8,14-5.8h21.2V19.3
	c0-5.3,2.2-10.1,5.7-13.6C50.1,2.2,54.9,0,60.2,0z M158.9,72.9c4.4,0,8,3.6,8,8.1c0,4.5-3.6,8.1-8,8.1c-4.4,0-8-3.6-8-8.1
	C150.8,76.5,154.4,72.9,158.9,72.9z M69.6,160.1c-2.4,0-4.3-2.2-4.3-4.9c0-2.7,1.9-4.9,4.3-4.9h50.7c2.4,0,4.3,2.2,4.3,4.9
	c0,2.7-1.9,4.9-4.3,4.9H69.6z M69.6,141.9c-2.4,0-4.3-2.2-4.3-4.9s1.9-4.9,4.3-4.9h50.7c2.4,0,4.3,2.2,4.3,4.9s-1.9,4.9-4.3,4.9
	H69.6z M136.4,150.3v-27.9c0-0.5-0.2-0.9-0.5-1.2c-0.3-0.3-0.7-0.5-1.2-0.5H55.1c-0.5,0-0.9,0.2-1.2,0.5c-0.3,0.3-0.5,0.7-0.5,1.2
	v27.9V168c0,0.5,0.2,0.9,0.5,1.2c0.3,0.3,0.7,0.5,1.2,0.5h79.6c0.5,0,0.9-0.2,1.2-0.5c0.3-0.3,0.5-0.7,0.5-1.2L136.4,150.3
	L136.4,150.3z M149.6,63.5H40.9H19.8c-1.4,0-2.6,0.6-3.5,1.5c-0.9,0.9-1.5,2.1-1.5,3.5v62.1c0,1.4,0.6,2.6,1.5,3.5
	c0.9,0.9,2.1,1.5,3.5,1.5h18.8v-13.1c0-4.5,1.9-8.7,4.8-11.7c3-3,7.1-4.8,11.7-4.8h79.6c4.5,0,8.7,1.9,11.7,4.8
	c3,3,4.8,7.1,4.8,11.7v13.1h20.1c1.4,0,2.6-0.6,3.5-1.5c0.9-0.9,1.5-2.1,1.5-3.5V68.4c0-1.4-0.6-2.6-1.5-3.5
	c-0.9-0.9-2.1-1.5-3.5-1.5L149.6,63.5L149.6,63.5z M130.4,14.8H60.2c-1.2,0-2.3,0.5-3.1,1.3c-0.8,0.8-1.3,1.9-1.3,3.1v29.4h79.1
	V19.3c0-1.2-0.5-2.3-1.3-3.1C132.7,15.3,131.6,14.8,130.4,14.8z"/>
<path id="imprimir-path6" class="st0" d="M158.9,72.8c2.2,0,4.3,0.9,5.8,2.4c1.5,1.5,2.4,3.5,2.4,5.8s-0.9,4.3-2.4,5.8
	c-1.5,1.5-3.5,2.4-5.8,2.4s-4.3-0.9-5.8-2.4c-1.5-1.5-2.4-3.5-2.4-5.8s0.9-4.3,2.4-5.8C154.6,73.7,156.6,72.8,158.9,72.8z
	 M164.5,75.4c-1.4-1.4-3.4-2.3-5.6-2.3c-2.2,0-4.2,0.9-5.6,2.3c-1.4,1.4-2.3,3.5-2.3,5.7c0,2.2,0.9,4.2,2.3,5.7
	c1.4,1.4,3.4,2.3,5.6,2.3c2.2,0,4.2-0.9,5.6-2.3c1.4-1.4,2.3-3.5,2.3-5.7C166.8,78.8,165.9,76.8,164.5,75.4z"/>
</svg>
