<?xml version="1.0" encoding="utf-8"?>
<!-- Generator: Adobe Illustrator 22.0.1, SVG Export Plug-In . SVG Version: 6.00 Build 0)  -->
<svg version="1.1" id="pagar" xmlns="http://www.w3.org/2000/svg" xmlns:xlink="http://www.w3.org/1999/xlink" x="0px" y="0px"
	 viewBox="0 0 24 24" style="enable-background:new 0 0 24 24;" xml:space="preserve">
<style type="text/css">
	.st0{fill:#3598DC;}
</style>
<path class="st0" d="M12,2c5.5,0,10,4.5,10,10s-4.5,10-10,10S2,17.5,2,12S6.5,2,12,2z M12,0C5.4,0,0,5.4,0,12s5.4,12,12,12
	s12-5.4,12-12S18.6,0,12,0z M16,14.1c0-2.1-2.2-2.7-3.9-3.5c-1-0.5-0.9-1.8,0.6-1.9c0.8-0.1,1.7,0.2,2.4,0.5l0.4-1.6
	C14.5,7.2,13.7,7,13,7V6h-1v1.1c-1.9,0.3-3,1.5-3,2.8c0,2.4,2.8,2.8,3.8,3.2c1.3,0.6,1,1.8-0.1,2c-1,0.2-2.3-0.2-3.2-0.5L9,16.3
	c0.9,0.5,2,0.7,3,0.7v1h1v-1.1C14.7,16.7,16,15.8,16,14.1z"/>
</svg>
